name Walk7.mot
datacolumns 19
datarows 25
range 1.88000000 2.00000000
endheader

                time	   L_ground_force_vx	   L_ground_force_vy	   L_ground_force_vz	   L_ground_force_px	   L_ground_force_py	   L_ground_force_pz	   R_ground_force_vx	   R_ground_force_vy	   R_ground_force_vz	   R_ground_force_px	   R_ground_force_py	   R_ground_force_pz	   L_ground_torque_x	   L_ground_torque_y	   L_ground_torque_z	   R_ground_torque_x	   R_ground_torque_y	   R_ground_torque_z	
          1.88000000	          0.13502915	          0.20986766	          0.00645144	          0.00187693	          0.00000000	          0.00032128	        -27.77564927	        656.12134995	        -49.54497281	          0.12418198	          0.00000000	          0.07644665	          0.00000000	         -0.00213717	          0.00000000	          0.00000000	          4.63867157	          0.00000000	
          1.88500000	          0.15698524	          0.34005105	         -0.00481125	          0.00120010	          0.00000000	          0.00021297	        -24.85878057	        647.60238251	        -49.33870809	          0.12641067	          0.00000000	          0.07648204	          0.00000000	         -0.00166986	          0.00000000	          0.00000000	          4.63809993	          0.00000000	
          1.89000000	          0.15864962	          0.39664121	         -0.01165329	          0.00067114	          0.00000000	          0.00012667	        -22.11522619	        640.39918156	        -49.11029683	          0.12858191	          0.00000000	          0.07651130	          0.00000000	         -0.00123811	          0.00000000	          0.00000000	          4.65321382	          0.00000000	
          1.89500000	          0.14716969	          0.40156186	         -0.01511932	          0.00027886	          0.00000000	          0.00006131	        -19.52673390	        634.53605876	        -48.88826753	          0.13069823	          0.00000000	          0.07653042	          0.00000000	         -0.00086332	          0.00000000	          0.00000000	          4.68602588	          0.00000000	
          1.90000000	          0.12816849	          0.37295869	         -0.01614626	          0.00000524	          0.00000000	          0.00001455	        -17.07190919	        630.00772876	        -48.69974293	          0.13275891	          0.00000000	          0.07653317	          0.00000000	         -0.00055470	          0.00000000	          0.00000000	          4.73746485	          0.00000000	
          1.90500000	          0.10584681	          0.32511951	         -0.01552785	         -0.00017064	          0.00000000	         -0.00001659	        -14.72785610	        626.78635962	        -48.56483175	          0.13476059	          0.00000000	          0.07651444	          0.00000000	         -0.00031292	          0.00000000	          0.00000000	          4.80718747	          0.00000000	
          1.91000000	          0.08316115	          0.26872814	         -0.01390320	         -0.00026994	          0.00000000	         -0.00003525	        -12.47135262	        624.83048166	        -48.49238650	          0.13669831	          0.00000000	          0.07647035	          0.00000000	         -0.00013312	          0.00000000	          0.00000000	          4.89303982	          0.00000000	
          1.91500000	          0.06203623	          0.21131231	         -0.01176178	         -0.00031226	          0.00000000	         -0.00004442	        -10.27898937	        624.09309183	        -48.48045271	          0.13856647	          0.00000000	          0.07639696	          0.00000000	         -0.00000729	          0.00000000	          0.00000000	          4.99088429	          0.00000000	
          1.92000000	          0.04358292	          0.15778040	         -0.00945831	         -0.00031471	          0.00000000	         -0.00004679	         -8.12844152	        624.52844740	        -48.51880788	          0.14035897	          0.00000000	          0.07629122	          0.00000000	          0.00007398	          0.00000000	          0.00000000	          5.09478789	          0.00000000	
          1.92500000	          0.02830228	          0.11097290	         -0.00723310	         -0.00029139	          0.00000000	         -0.00004461	         -5.99997061	        626.09303186	        -48.59140480	          0.14207116	          0.00000000	          0.07615111	          0.00000000	          0.00012025	          0.00000000	          0.00000000	          5.19719501	          0.00000000	
          1.93000000	          0.01626474	          0.07217954	         -0.00523406	         -0.00025339	          0.00000000	         -0.00003969	         -3.87711006	        628.73945770	        -48.67689475	          0.14369825	          0.00000000	          0.07597606	          0.00000000	          0.00014040	          0.00000000	          0.00000000	          5.28955633	          0.00000000	
          1.93500000	          0.00725895	          0.04159358	         -0.00353817	         -0.00020898	          0.00000000	         -0.00003339	         -1.74872823	        632.41086188	        -48.74627723	          0.14523199	          0.00000000	          0.07576701	          0.00000000	          0.00014223	          0.00000000	          0.00000000	          5.36263196	          0.00000000	
          1.94000000	          0.00090962	          0.01868985	         -0.00217080	         -0.00016397	          0.00000000	         -0.00002671	          0.38867682	        637.04116431	        -48.76402107	          0.14666329	          0.00000000	          0.07552776	          0.00000000	          0.00013215	          0.00000000	          0.00000000	          5.40684758	          0.00000000	
          1.94500000	         -0.00323403	          0.00252399	         -0.00112225	         -0.00012214	          0.00000000	         -0.00002031	          2.53261610	        642.55214184	        -48.69787326	          0.14798613	          0.00000000	          0.07526335	          0.00000000	          0.00011523	          0.00000000	          0.00000000	          5.41327239	          0.00000000	
          1.95000000	         -0.00563549	         -0.00804248	         -0.00036108	         -0.00008566	          0.00000000	         -0.00001461	          4.67900992	        648.85116737	        -48.52408025	          0.14919917	          0.00000000	          0.07497742	          0.00000000	          0.00009527	          0.00000000	          0.00000000	          5.37457527	          0.00000000	
          1.95500000	         -0.00672981	         -0.01418249	          0.00015560	         -0.00005549	          0.00000000	         -0.00000979	          6.82631797	        655.83118039	        -48.22736250	          0.15030419	          0.00000000	          0.07467182	          0.00000000	          0.00007494	          0.00000000	          0.00000000	          5.28538718	          0.00000000	
          1.96000000	         -0.00689932	         -0.01699830	          0.00047464	         -0.00003175	          0.00000000	         -0.00000593	          8.97938911	        663.37435034	        -47.80310836	          0.15130482	          0.00000000	          0.07434751	          0.00000000	          0.00005597	          0.00000000	          0.00000000	          5.14217868	          0.00000000	
          1.96500000	         -0.00646238	         -0.01745966	          0.00064169	         -0.00001402	          0.00000000	         -0.00000298	         11.15001797	        671.36019781	        -47.25780219	          0.15220662	          0.00000000	          0.07400612	          0.00000000	          0.00003938	          0.00000000	          0.00000000	          4.94290793	          0.00000000	
          1.97000000	         -0.00567108	         -0.01637467	          0.00069806	         -0.00000154	          0.00000000	         -0.00000086	         13.35420095	        679.67271545	        -46.60472403	          0.15301856	          0.00000000	          0.07365063	          0.00000000	          0.00002563	          0.00000000	          0.00000000	          4.68635846	          0.00000000	
          1.97500000	         -0.00471512	         -0.01438385	          0.00067901	          0.00000659	          0.00000000	          0.00000057	         15.60841504	        688.20044508	        -45.85936295	          0.15375082	          0.00000000	          0.07328408	          0.00000000	          0.00001478	          0.00000000	          0.00000000	          4.37221633	          0.00000000	
          1.98000000	         -0.00372917	         -0.01196959	          0.00061309	          0.00001128	          0.00000000	          0.00000145	         17.92571401	        696.83826440	        -45.03688849	          0.15441332	          0.00000000	          0.07290938	          0.00000000	          0.00000666	          0.00000000	          0.00000000	          4.00173560	          0.00000000	
          1.98500000	         -0.00280197	         -0.00947472	          0.00052233	          0.00001339	          0.00000000	          0.00000189	         20.31399475	        705.49215377	        -44.14966824	          0.15501635	          0.00000000	          0.07252974	          0.00000000	          0.00000092	          0.00000000	          0.00000000	          3.57764492	          0.00000000	
          1.99000000	         -0.00198577	         -0.00712547	          0.00042281	          0.00001369	          0.00000000	          0.00000203	         22.77588055	        714.08076027	        -43.20572052	          0.15556953	          0.00000000	          0.07214768	          0.00000000	         -0.00000283	          0.00000000	          0.00000000	          3.10366974	          0.00000000	
          1.99500000	         -0.00130531	         -0.00505541	          0.00032556	          0.00001280	          0.00000000	          0.00000195	         25.30932531	        722.53959552	        -42.20989420	          0.15608270	          0.00000000	          0.07176581	          0.00000000	         -0.00000501	          0.00000000	          0.00000000	          2.58435143	          0.00000000	
          2.00000000	         -0.00076571	         -0.00332809	          0.00023744	          0.00001121	          0.00000000	          0.00000175	         27.90951836	        730.82000030	        -41.16528369	          0.15656488	          0.00000000	          0.07138741	          0.00000000	         -0.00000602	          0.00000000	          0.00000000	          2.02475655	          0.00000000	
